# xmcd CD database file
#
# Track frame offsets:
#	150
#	13322
#	24507
#	40073
#	51951
#	67021
#	78813
#	91368
#	101666
#	113308
#
# Disc length: 1655 seconds
#
# Revision: 2
# Processed by: cddbd v1.5.2PL0 Copyright (c) Steve Scherf et al.
# Submitted via: CDex 1.70beta2
#
DISCID=7406750a
DTITLE=Conway Twitty - Super Hits Volume Two
DYEAR=1981
DGENRE=Country
TTITLE0=Danny Boy
TTITLE1=It's Only Make Believe
TTITLE2=Touch The Hand
TTITLE3=I Can't See Me Without You
TTITLE4=(Lost Her Love) On Our Last Date
TTITLE5=I'm Not Through Loving You Yet
TTITLE6=This Time I've Hurt Her More (Than She Loves Me)
TTITLE7=(I Can't Believe) She Gives It All To Me
TTITLE8=To See An Angel Cry
TTITLE9=As Soon As I Hang Up The Phone
EXTD=YEAR: 1981
EXTT0=
EXTT1=
EXTT2=
EXTT3=
EXTT4=
EXTT5=
EXTT6=
EXTT7=
EXTT8=
EXTT9=
PLAYORDER=
